Primer Escuadrón (2009) [DVDRip][Spanish Ac3 5.1]
 
http://www.imdb.com/title/tt1343712/ 
http://www.first-squad.com/ 
http://www.filmaffinity.com/es/film171189.html

Titulo: Primer Escuadron
Titulo Original: Faasuto Sukuwaddo (First Squad: The Moment of Truth) 
Año: 2009  
Lanzamiento en DVD España: 02 Agosto del 2011
Duracion: 73 min.   
Pais:  Rusia 
Director: Yoshiharu Ashino, Aljosha Klimov, Misha Sprits 
Guion: Aljosha Klimov, Misha Sprits 
Musica: DJ Krush 
Fotografia: Animation 
Reparto: Animation 
Productora: Coproducción Japón-Rusia-Canadá; Studio 4°C / Molot Entertainment  
Genero: Animación. Bélico. Fantástico | II Guerra Mundial. Falso documental 

Sipnosis:
---------
En 1942 el combate que mantiene Alemania con Rusia parece no tener fin y ambos países comenzarán a desarrollar unidades especializadas en la magia y el ocultismo. Nadya, una joven medium, se convertirá en la mejor arma del ejército ruso para solventar a su favor ‘el momento de la verdad’, el segundo decisivo en que una batalla se gana o se pierde. Coproducción ruso-japonesa que se exhibió en el festival de Cannes y en Locarno, que alterna secuencias animadas con otras narradas a modo de falso documental, incluyendo testimonios de veteranos de guerra. 


Format : AVI
Format/Info : Audio Video Interleave
File size : 914 MiB
Duration : 57mn 23s
Overall bit rate : 2 226 Kbps
Writing application : Magic0515

Video
ID : 0
Format : MPEG-4 Visual
Format profile : Advanced Simple@L4
Format settings, BVOP : No
Format settings, QPel : No
Format settings, GMC : No warppoints
Format settings, Matrix : Default (H.263)
Codec ID : XVID
Codec ID/Hint : XviD
Duration : 57mn 23s
Bit rate : 1 767 Kbps
Width : 720 pixels
Height : 304 pixels
Display aspect ratio : 2.35:1
Frame rate : 25.000 fps
Color space : YUV
Chroma subsampling : 4:2:0
Bit depth : 8 bits
Scan type : Progressive
Compression mode : Lossy
Bits/(Pixel*Frame) : 0.323
Stream size : 725 MiB (79%)
Writing library : Magic0432

Audio
ID : 1
Format : AC-3
Format/Info : Audio Coding 3
Mode extension : CM (complete main)
Codec ID : 2000
Duration : 57mn 23s
Bit rate mode : Constant
Bit rate : 448 Kbps
Channel(s) : 6 channels
Channel positions : Front: L C R, Side: L R, LFE
Sampling rate : 48.0 KHz
Bit depth : 16 bits
Compression mode : Lossy
Stream size : 184 MiB (20%)
Alignment : Aligned on interleaves
Interleave, duration : 32 ms (0.80 video frame)

